<mxfile host="app.diagrams.net" modified="2021-08-03T06:29:46.207Z" agent="5.0 (Macintosh; Intel Mac OS X 10_15_7) AppleWebKit/537.36 (KHTML, like Gecko) Chrome/91.0.4472.114 Safari/537.36" etag="zDLWd13ekauuV-g5meuX" version="14.8.5" type="github">
  <diagram id="3wP3CYW0FM_uqGQw4saJ" name="Page-1">
    <mxGraphModel dx="1309" dy="614" grid="0" gridSize="10" guides="1" tooltips="1" connect="1" arrows="1" fold="1" page="1" pageScale="1" pageWidth="827" pageHeight="1169" math="0" shadow="0">
      <root>
        <mxCell id="0" />
        <mxCell id="1" parent="0" />
        <mxCell id="k7d0v9CwgHbeBsW23cDr-24" value="" style="rounded=0;whiteSpace=wrap;html=1;dashed=1;dashPattern=1 4;" parent="1" vertex="1">
          <mxGeometry x="86" y="170" width="200" height="785" as="geometry" />
        </mxCell>
        <mxCell id="k7d0v9CwgHbeBsW23cDr-23" value="" style="rounded=0;whiteSpace=wrap;html=1;dashed=1;dashPattern=1 4;" parent="1" vertex="1">
          <mxGeometry x="295" y="168" width="220" height="786" as="geometry" />
        </mxCell>
        <mxCell id="k7d0v9CwgHbeBsW23cDr-27" style="edgeStyle=orthogonalEdgeStyle;rounded=0;orthogonalLoop=1;jettySize=auto;html=1;exitX=0.5;exitY=1;exitDx=0;exitDy=0;startArrow=none;entryX=0.5;entryY=0;entryDx=0;entryDy=0;" parent="1" source="NNDnJ0k0iW4ZeDAFmxqK-1" target="k7d0v9CwgHbeBsW23cDr-14" edge="1">
          <mxGeometry relative="1" as="geometry">
            <mxPoint x="-25" y="481" as="targetPoint" />
          </mxGeometry>
        </mxCell>
        <mxCell id="k7d0v9CwgHbeBsW23cDr-1" value="开始" style="rounded=1;whiteSpace=wrap;html=1;" parent="1" vertex="1">
          <mxGeometry x="139" y="183" width="120" height="60" as="geometry" />
        </mxCell>
        <mxCell id="NNDnJ0k0iW4ZeDAFmxqK-33" style="edgeStyle=orthogonalEdgeStyle;rounded=0;orthogonalLoop=1;jettySize=auto;html=1;exitX=0.5;exitY=1;exitDx=0;exitDy=0;entryX=0.5;entryY=0;entryDx=0;entryDy=0;entryPerimeter=0;" parent="1" source="k7d0v9CwgHbeBsW23cDr-2" target="k7d0v9CwgHbeBsW23cDr-3" edge="1">
          <mxGeometry relative="1" as="geometry" />
        </mxCell>
        <mxCell id="k7d0v9CwgHbeBsW23cDr-2" value="规则+模型挖掘时效性词" style="rounded=0;whiteSpace=wrap;html=1;" parent="1" vertex="1">
          <mxGeometry x="360.5" y="263" width="120" height="60" as="geometry" />
        </mxCell>
        <mxCell id="NNDnJ0k0iW4ZeDAFmxqK-27" style="edgeStyle=orthogonalEdgeStyle;rounded=0;orthogonalLoop=1;jettySize=auto;html=1;entryX=1;entryY=0.5;entryDx=0;entryDy=0;" parent="1" source="k7d0v9CwgHbeBsW23cDr-3" target="NNDnJ0k0iW4ZeDAFmxqK-1" edge="1">
          <mxGeometry relative="1" as="geometry" />
        </mxCell>
        <mxCell id="k7d0v9CwgHbeBsW23cDr-3" value="时效性词库" style="shape=cylinder3;whiteSpace=wrap;html=1;boundedLbl=1;backgroundOutline=1;size=15;" parent="1" vertex="1">
          <mxGeometry x="362" y="347" width="117" height="70" as="geometry" />
        </mxCell>
        <mxCell id="k7d0v9CwgHbeBsW23cDr-20" style="edgeStyle=orthogonalEdgeStyle;rounded=0;orthogonalLoop=1;jettySize=auto;html=1;entryX=0.5;entryY=0;entryDx=0;entryDy=0;" parent="1" source="k7d0v9CwgHbeBsW23cDr-14" target="k7d0v9CwgHbeBsW23cDr-15" edge="1">
          <mxGeometry relative="1" as="geometry" />
        </mxCell>
        <mxCell id="k7d0v9CwgHbeBsW23cDr-14" value="query改写" style="rounded=0;whiteSpace=wrap;html=1;dashed=1" parent="1" vertex="1">
          <mxGeometry x="139" y="447" width="120" height="60" as="geometry" />
        </mxCell>
        <mxCell id="k7d0v9CwgHbeBsW23cDr-21" style="edgeStyle=orthogonalEdgeStyle;rounded=0;orthogonalLoop=1;jettySize=auto;html=1;exitX=0.5;exitY=1;exitDx=0;exitDy=0;entryX=0.5;entryY=0;entryDx=0;entryDy=0;startArrow=none;" parent="1" source="NNDnJ0k0iW4ZeDAFmxqK-16" target="k7d0v9CwgHbeBsW23cDr-16" edge="1">
          <mxGeometry relative="1" as="geometry" />
        </mxCell>
        <mxCell id="k7d0v9CwgHbeBsW23cDr-15" value="&lt;span&gt;笔记召回&lt;/span&gt;" style="rounded=0;whiteSpace=wrap;html=1;" parent="1" vertex="1">
          <mxGeometry x="139" y="537" width="120" height="60" as="geometry" />
        </mxCell>
        <mxCell id="k7d0v9CwgHbeBsW23cDr-22" style="edgeStyle=orthogonalEdgeStyle;rounded=0;orthogonalLoop=1;jettySize=auto;html=1;exitX=0.5;exitY=1;exitDx=0;exitDy=0;entryX=0.5;entryY=0;entryDx=0;entryDy=0;startArrow=none;" parent="1" source="NNDnJ0k0iW4ZeDAFmxqK-47" target="k7d0v9CwgHbeBsW23cDr-17" edge="1">
          <mxGeometry relative="1" as="geometry" />
        </mxCell>
        <mxCell id="k7d0v9CwgHbeBsW23cDr-16" value="postrank调整权重" style="rounded=0;whiteSpace=wrap;html=1;" parent="1" vertex="1">
          <mxGeometry x="139" y="721" width="120" height="60" as="geometry" />
        </mxCell>
        <mxCell id="k7d0v9CwgHbeBsW23cDr-17" value="结束" style="rounded=1;whiteSpace=wrap;html=1;" parent="1" vertex="1">
          <mxGeometry x="139" y="885" width="120" height="60" as="geometry" />
        </mxCell>
        <mxCell id="NNDnJ0k0iW4ZeDAFmxqK-42" style="edgeStyle=orthogonalEdgeStyle;rounded=0;orthogonalLoop=1;jettySize=auto;html=1;entryX=1;entryY=0.5;entryDx=0;entryDy=0;entryPerimeter=0;" parent="1" source="k7d0v9CwgHbeBsW23cDr-33" target="k7d0v9CwgHbeBsW23cDr-3" edge="1">
          <mxGeometry relative="1" as="geometry" />
        </mxCell>
        <mxCell id="k7d0v9CwgHbeBsW23cDr-33" value="运营词表" style="rounded=0;whiteSpace=wrap;html=1;" parent="1" vertex="1">
          <mxGeometry x="531" y="352" width="120" height="60" as="geometry" />
        </mxCell>
        <mxCell id="NNDnJ0k0iW4ZeDAFmxqK-1" value="意图识别&lt;br&gt;+时间信息转义&lt;br&gt;+时效性强度" style="rounded=0;whiteSpace=wrap;html=1;" parent="1" vertex="1">
          <mxGeometry x="139" y="352" width="120" height="60" as="geometry" />
        </mxCell>
        <mxCell id="NNDnJ0k0iW4ZeDAFmxqK-2" value="" style="edgeStyle=orthogonalEdgeStyle;rounded=0;orthogonalLoop=1;jettySize=auto;html=1;exitX=0.5;exitY=1;exitDx=0;exitDy=0;entryX=0.5;entryY=0;entryDx=0;entryDy=0;endArrow=none;startArrow=none;" parent="1" source="NNDnJ0k0iW4ZeDAFmxqK-53" target="NNDnJ0k0iW4ZeDAFmxqK-1" edge="1">
          <mxGeometry relative="1" as="geometry">
            <mxPoint x="199" y="326" as="sourcePoint" />
            <mxPoint x="199" y="421" as="targetPoint" />
          </mxGeometry>
        </mxCell>
        <mxCell id="NNDnJ0k0iW4ZeDAFmxqK-34" style="edgeStyle=orthogonalEdgeStyle;rounded=0;orthogonalLoop=1;jettySize=auto;html=1;exitX=0;exitY=0.5;exitDx=0;exitDy=0;exitPerimeter=0;" parent="1" source="NNDnJ0k0iW4ZeDAFmxqK-3" target="k7d0v9CwgHbeBsW23cDr-15" edge="1">
          <mxGeometry relative="1" as="geometry" />
        </mxCell>
        <mxCell id="NNDnJ0k0iW4ZeDAFmxqK-3" value="笔记" style="shape=cylinder3;whiteSpace=wrap;html=1;boundedLbl=1;backgroundOutline=1;size=15;" parent="1" vertex="1">
          <mxGeometry x="360.5" y="532" width="115" height="70" as="geometry" />
        </mxCell>
        <mxCell id="NNDnJ0k0iW4ZeDAFmxqK-35" style="edgeStyle=orthogonalEdgeStyle;rounded=0;orthogonalLoop=1;jettySize=auto;html=1;exitX=0.5;exitY=0;exitDx=0;exitDy=0;entryX=0.5;entryY=1;entryDx=0;entryDy=0;entryPerimeter=0;" parent="1" source="NNDnJ0k0iW4ZeDAFmxqK-4" target="NNDnJ0k0iW4ZeDAFmxqK-3" edge="1">
          <mxGeometry relative="1" as="geometry" />
        </mxCell>
        <mxCell id="NNDnJ0k0iW4ZeDAFmxqK-4" value="时效性判断" style="rounded=0;whiteSpace=wrap;html=1;" parent="1" vertex="1">
          <mxGeometry x="358" y="629" width="120" height="60" as="geometry" />
        </mxCell>
        <mxCell id="NNDnJ0k0iW4ZeDAFmxqK-51" style="edgeStyle=orthogonalEdgeStyle;rounded=0;orthogonalLoop=1;jettySize=auto;html=1;entryX=0.5;entryY=0;entryDx=0;entryDy=0;" parent="1" source="NNDnJ0k0iW4ZeDAFmxqK-7" target="k7d0v9CwgHbeBsW23cDr-2" edge="1">
          <mxGeometry relative="1" as="geometry" />
        </mxCell>
        <mxCell id="NNDnJ0k0iW4ZeDAFmxqK-52" style="edgeStyle=orthogonalEdgeStyle;rounded=0;orthogonalLoop=1;jettySize=auto;html=1;entryX=1;entryY=0.25;entryDx=0;entryDy=0;" parent="1" source="NNDnJ0k0iW4ZeDAFmxqK-7" target="NNDnJ0k0iW4ZeDAFmxqK-1" edge="1">
          <mxGeometry relative="1" as="geometry" />
        </mxCell>
        <mxCell id="NNDnJ0k0iW4ZeDAFmxqK-7" value="时效性&lt;br&gt;query分类模型" style="shape=process;whiteSpace=wrap;html=1;backgroundOutline=1;" parent="1" vertex="1">
          <mxGeometry x="360.5" y="180" width="120" height="60" as="geometry" />
        </mxCell>
        <mxCell id="NNDnJ0k0iW4ZeDAFmxqK-16" value="时效性排序" style="rounded=0;whiteSpace=wrap;html=1;" parent="1" vertex="1">
          <mxGeometry x="139" y="629" width="120" height="60" as="geometry" />
        </mxCell>
        <mxCell id="NNDnJ0k0iW4ZeDAFmxqK-17" value="" style="edgeStyle=orthogonalEdgeStyle;rounded=0;orthogonalLoop=1;jettySize=auto;html=1;exitX=0.5;exitY=1;exitDx=0;exitDy=0;entryX=0.5;entryY=0;entryDx=0;entryDy=0;endArrow=none;" parent="1" source="k7d0v9CwgHbeBsW23cDr-15" target="NNDnJ0k0iW4ZeDAFmxqK-16" edge="1">
          <mxGeometry relative="1" as="geometry">
            <mxPoint x="199" y="597" as="sourcePoint" />
            <mxPoint x="199" y="721" as="targetPoint" />
          </mxGeometry>
        </mxCell>
        <mxCell id="NNDnJ0k0iW4ZeDAFmxqK-36" style="edgeStyle=orthogonalEdgeStyle;rounded=0;orthogonalLoop=1;jettySize=auto;html=1;exitX=0.5;exitY=0;exitDx=0;exitDy=0;entryX=0.5;entryY=1;entryDx=0;entryDy=0;" parent="1" source="NNDnJ0k0iW4ZeDAFmxqK-19" target="NNDnJ0k0iW4ZeDAFmxqK-4" edge="1">
          <mxGeometry relative="1" as="geometry" />
        </mxCell>
        <mxCell id="NNDnJ0k0iW4ZeDAFmxqK-19" value="时效性&lt;br&gt;笔记分类模型" style="shape=process;whiteSpace=wrap;html=1;backgroundOutline=1;" parent="1" vertex="1">
          <mxGeometry x="358" y="721" width="120" height="58" as="geometry" />
        </mxCell>
        <mxCell id="NNDnJ0k0iW4ZeDAFmxqK-44" style="edgeStyle=orthogonalEdgeStyle;rounded=0;orthogonalLoop=1;jettySize=auto;html=1;entryX=1;entryY=0.5;entryDx=0;entryDy=0;entryPerimeter=0;" parent="1" source="NNDnJ0k0iW4ZeDAFmxqK-24" target="NNDnJ0k0iW4ZeDAFmxqK-3" edge="1">
          <mxGeometry relative="1" as="geometry" />
        </mxCell>
        <mxCell id="NNDnJ0k0iW4ZeDAFmxqK-24" value="笔记提降权" style="rounded=0;whiteSpace=wrap;html=1;" parent="1" vertex="1">
          <mxGeometry x="531" y="537" width="120" height="60" as="geometry" />
        </mxCell>
        <mxCell id="NNDnJ0k0iW4ZeDAFmxqK-41" style="edgeStyle=orthogonalEdgeStyle;rounded=0;orthogonalLoop=1;jettySize=auto;html=1;exitX=1;exitY=0.5;exitDx=0;exitDy=0;entryX=0.5;entryY=1;entryDx=0;entryDy=0;" parent="1" source="NNDnJ0k0iW4ZeDAFmxqK-38" target="k7d0v9CwgHbeBsW23cDr-33" edge="1">
          <mxGeometry relative="1" as="geometry" />
        </mxCell>
        <mxCell id="NNDnJ0k0iW4ZeDAFmxqK-43" style="edgeStyle=orthogonalEdgeStyle;rounded=0;orthogonalLoop=1;jettySize=auto;html=1;entryX=0.5;entryY=0;entryDx=0;entryDy=0;" parent="1" source="NNDnJ0k0iW4ZeDAFmxqK-38" target="NNDnJ0k0iW4ZeDAFmxqK-24" edge="1">
          <mxGeometry relative="1" as="geometry" />
        </mxCell>
        <mxCell id="NNDnJ0k0iW4ZeDAFmxqK-38" value="负反馈" style="rounded=0;whiteSpace=wrap;html=1;" parent="1" vertex="1">
          <mxGeometry x="362" y="447" width="120" height="60" as="geometry" />
        </mxCell>
        <mxCell id="NNDnJ0k0iW4ZeDAFmxqK-49" style="edgeStyle=orthogonalEdgeStyle;rounded=0;orthogonalLoop=1;jettySize=auto;html=1;entryX=0;entryY=0.5;entryDx=0;entryDy=0;dashed=1" parent="1" source="NNDnJ0k0iW4ZeDAFmxqK-47" target="NNDnJ0k0iW4ZeDAFmxqK-38" edge="1">
          <mxGeometry relative="1" as="geometry" />
        </mxCell>
        <mxCell id="NNDnJ0k0iW4ZeDAFmxqK-47" value="曝光" style="rounded=0;whiteSpace=wrap;html=1;" parent="1" vertex="1">
          <mxGeometry x="139" y="800" width="120" height="60" as="geometry" />
        </mxCell>
        <mxCell id="NNDnJ0k0iW4ZeDAFmxqK-48" value="" style="edgeStyle=orthogonalEdgeStyle;rounded=0;orthogonalLoop=1;jettySize=auto;html=1;exitX=0.5;exitY=1;exitDx=0;exitDy=0;entryX=0.5;entryY=0;entryDx=0;entryDy=0;endArrow=none;" parent="1" source="k7d0v9CwgHbeBsW23cDr-16" target="NNDnJ0k0iW4ZeDAFmxqK-47" edge="1">
          <mxGeometry relative="1" as="geometry">
            <mxPoint x="199" y="781" as="sourcePoint" />
            <mxPoint x="199" y="885" as="targetPoint" />
          </mxGeometry>
        </mxCell>
        <mxCell id="NNDnJ0k0iW4ZeDAFmxqK-53" value="请求" style="rounded=0;whiteSpace=wrap;html=1;" parent="1" vertex="1">
          <mxGeometry x="139" y="268" width="120" height="60" as="geometry" />
        </mxCell>
        <mxCell id="NNDnJ0k0iW4ZeDAFmxqK-54" value="" style="edgeStyle=orthogonalEdgeStyle;rounded=0;orthogonalLoop=1;jettySize=auto;html=1;exitX=0.5;exitY=1;exitDx=0;exitDy=0;entryX=0.5;entryY=0;entryDx=0;entryDy=0;endArrow=none;" parent="1" source="k7d0v9CwgHbeBsW23cDr-1" target="NNDnJ0k0iW4ZeDAFmxqK-53" edge="1">
          <mxGeometry relative="1" as="geometry">
            <mxPoint x="199" y="243" as="sourcePoint" />
            <mxPoint x="199" y="352" as="targetPoint" />
          </mxGeometry>
        </mxCell>
        <mxCell id="NNDnJ0k0iW4ZeDAFmxqK-55" value="线上" style="text;html=1;strokeColor=none;fillColor=none;align=center;verticalAlign=middle;whiteSpace=wrap;rounded=0;" parent="1" vertex="1">
          <mxGeometry x="94" y="192" width="40" height="20" as="geometry" />
        </mxCell>
        <mxCell id="NNDnJ0k0iW4ZeDAFmxqK-56" value="离线" style="text;html=1;strokeColor=none;fillColor=none;align=center;verticalAlign=middle;whiteSpace=wrap;rounded=0;" parent="1" vertex="1">
          <mxGeometry x="489" y="192" width="40" height="20" as="geometry" />
        </mxCell>
        <mxCell id="NNDnJ0k0iW4ZeDAFmxqK-61" style="edgeStyle=orthogonalEdgeStyle;rounded=0;orthogonalLoop=1;jettySize=auto;html=1;exitX=0.5;exitY=0;exitDx=0;exitDy=0;entryX=1;entryY=0.5;entryDx=0;entryDy=0;" parent="1" source="NNDnJ0k0iW4ZeDAFmxqK-57" target="k7d0v9CwgHbeBsW23cDr-33" edge="1">
          <mxGeometry relative="1" as="geometry" />
        </mxCell>
        <mxCell id="NNDnJ0k0iW4ZeDAFmxqK-62" style="edgeStyle=orthogonalEdgeStyle;rounded=0;orthogonalLoop=1;jettySize=auto;html=1;exitX=0.5;exitY=1;exitDx=0;exitDy=0;entryX=1;entryY=0.5;entryDx=0;entryDy=0;" parent="1" source="NNDnJ0k0iW4ZeDAFmxqK-57" target="NNDnJ0k0iW4ZeDAFmxqK-24" edge="1">
          <mxGeometry relative="1" as="geometry" />
        </mxCell>
        <mxCell id="NNDnJ0k0iW4ZeDAFmxqK-57" value="运营需求" style="rounded=0;whiteSpace=wrap;html=1;" parent="1" vertex="1">
          <mxGeometry x="647" y="447" width="120" height="60" as="geometry" />
        </mxCell>
      </root>
    </mxGraphModel>
  </diagram>
</mxfile>
